# xmcd
#
# Track frame offsets: 
#        150
#        18743
#        28317
#        43270
#        59257
#
# Disc length: 948 seconds
#
# Revision: 0
# Processed by: cddbd v1.5.2PL0 Copyright (c) Steve Scherf et al.
# Submitted via: ExactAudioCopy v1.0b3
#
DISCID=4403b205
DTITLE=Shelby Lynne - Thanks
DYEAR=2013
DGENRE=Country
TTITLE0=Call Me Up
TTITLE1=Forevermore
TTITLE2=Walkin'
TTITLE3=This Road I'm On
TTITLE4=Thanks
EXTD=
EXTT0=
EXTT1=
EXTT2=
EXTT3=
EXTT4=
PLAYORDER=
